<?xml version="1.0" standalone="no"?>
<!DOCTYPE svg PUBLIC "-//W3C//DTD SVG 20010904//EN"
 "http://www.w3.org/TR/2001/REC-SVG-20010904/DTD/svg10.dtd">
<svg version="1.0" xmlns="http://www.w3.org/2000/svg"
 width="560.000000pt" height="561.000000pt" viewBox="0 0 560.000000 561.000000"
 preserveAspectRatio="xMidYMid meet">

<g transform="translate(0.000000,561.000000) scale(0.100000,-0.100000)"
fill="#000000" stroke="none">
<path d="M0 2805 l0 -2805 2800 0 2800 0 0 2805 0 2805 -2800 0 -2800 0 0
-2805z m2996 1695 c200 -51 397 -191 501 -356 24 -38 33 -44 63 -44 112 -1
250 -62 340 -151 134 -132 183 -336 120 -502 -12 -31 -16 -53 -10 -55 5 -2 43
-25 83 -51 322 -211 371 -687 97 -957 -63 -61 -118 -104 -136 -104 -6 0 -28
41 -48 90 -33 83 -36 98 -36 194 0 57 -7 142 -15 190 -14 82 -97 309 -132 362
-35 55 -121 70 -182 33 -32 -19 -34 -19 -53 -2 -15 13 -36 18 -84 18 l-64 0 6
35 c4 19 24 89 45 154 41 128 96 231 152 285 33 31 38 33 69 22 18 -6 50 -23
70 -36 45 -30 50 -30 73 -5 16 18 16 21 2 44 -21 31 -109 74 -170 82 -46 7
-49 5 -87 -34 -48 -51 -89 -110 -125 -182 -16 -30 -29 -56 -30 -58 -2 -2 -264
96 -278 105 -15 9 59 128 114 185 63 64 83 70 159 43 75 -27 110 -13 95 36 -8
23 -118 59 -182 59 -42 0 -48 -4 -121 -77 -55 -56 -88 -100 -116 -155 l-39
-76 -56 -4 c-52 -3 -59 -1 -96 33 -29 26 -106 64 -270 135 -216 93 -234 99
-295 98 -134 -2 -264 -81 -352 -215 -46 -69 -57 -80 -88 -84 -197 -28 -299
-87 -390 -224 -29 -45 -29 -45 -10 -71 11 -15 40 -50 66 -79 35 -39 44 -55 35
-64 -6 -6 -11 -26 -11 -45 0 -26 25 -69 118 -205 65 -95 160 -238 211 -319
104 -166 101 -164 191 -122 163 77 409 144 582 160 l76 7 67 -54 c65 -52 66
-54 39 -57 -16 -1 -47 -9 -69 -16 -22 -8 -94 -19 -160 -26 -66 -6 -166 -22
-222 -36 -88 -21 -108 -23 -145 -14 -96 26 -175 -14 -198 -101 -7 -24 -22 -55
-33 -67 -38 -41 -116 -75 -187 -79 -128 -9 -241 60 -303 186 -28 58 -32 75
-32 151 0 47 4 99 8 117 8 31 7 32 -46 58 -128 60 -212 210 -223 400 -16 253
117 469 309 500 30 5 37 10 37 29 0 46 31 123 65 163 45 53 101 75 187 75 l67
0 12 56 c72 329 364 594 708 643 84 12 237 2 327 -21z m-600 -838 c19 -56 29
-108 29 -147 l0 -60 -53 -36 c-54 -35 -119 -64 -179 -79 -29 -7 -35 -4 -58 26
-27 35 -52 43 -73 22 -16 -16 -15 -40 3 -74 13 -25 13 -31 -2 -54 -27 -44 -66
-80 -135 -127 -65 -44 -68 -45 -100 -33 -47 19 -114 70 -177 133 l-54 55 22
30 c49 70 129 121 216 140 108 23 121 24 140 2 38 -42 88 -12 68 41 -10 26 -7
35 26 86 62 96 149 162 238 182 48 10 53 5 89 -107z m281 -28 c103 -25 192
-50 197 -54 4 -5 -18 -13 -50 -19 -78 -16 -286 -62 -301 -68 -9 -4 -13 6 -13
28 0 31 -13 97 -26 142 -3 9 -3 17 0 17 2 0 89 -21 193 -46z m366 -146 c-21
-92 -24 -98 -47 -98 -25 0 -84 -36 -98 -60 -4 -8 -12 -27 -18 -42 -7 -21 -16
-28 -35 -28 -29 0 -29 -2 -13 126 13 106 4 98 113 113 101 14 104 14 98 -11z
m165 -12 c29 -11 52 -26 52 -32 0 -11 -9 -64 -25 -140 -4 -18 -10 -20 -44 -15
-31 5 -45 14 -65 43 -24 36 -24 37 -9 95 17 64 22 75 32 71 3 -2 30 -12 59
-22z m-459 -119 l-11 -105 -102 -20 c-55 -11 -105 -16 -109 -12 -4 4 -11 47
-14 96 l-6 89 84 23 c94 25 162 40 167 36 2 -1 -2 -49 -9 -107z m630 52 c17
-6 31 -14 31 -17 0 -4 -7 -38 -17 -75 -16 -69 -16 -69 -46 -63 -17 3 -33 8
-35 11 -4 4 13 107 24 143 4 15 3 15 43 1z m-946 -122 c3 -34 9 -69 12 -78 5
-13 -14 -22 -95 -48 -56 -18 -104 -30 -106 -28 -5 5 -44 109 -44 117 0 4 21
12 48 19 26 6 74 27 107 45 33 19 63 34 66 35 3 0 9 -27 12 -62z m605 14 c10
-5 57 -109 112 -246 57 -142 102 -241 113 -246 23 -13 57 6 57 30 0 11 -14 56
-31 101 -26 67 -29 86 -20 106 8 17 19 24 40 24 37 0 40 -5 91 -130 49 -122
54 -130 86 -130 44 0 46 30 9 121 -40 98 -42 119 -14 145 37 34 64 5 118 -125
48 -119 68 -144 99 -125 27 17 26 38 -8 128 -34 90 -32 118 10 131 37 12 55
-12 107 -142 60 -151 72 -205 80 -373 l5 -125 -228 -91 -228 -92 -61 42 c-33
24 -100 64 -150 91 -106 56 -180 105 -292 192 -68 53 -83 69 -83 92 0 32 16
51 45 51 22 0 176 -84 231 -126 45 -34 94 -28 94 13 0 13 -58 156 -191 471
-38 90 -69 167 -69 172 0 13 37 50 51 50 6 0 18 -4 27 -9z m175 -98 c2 -5 1
-19 -3 -33 -6 -25 -6 -25 -18 8 -9 26 -8 32 3 32 8 0 16 -3 18 -7z m-1045
-109 c-2 -1 -42 -18 -91 -37 -82 -34 -88 -34 -97 -17 -8 15 -2 24 40 55 28 21
63 53 77 72 l27 35 23 -53 c13 -28 22 -53 21 -55z m1163 80 c37 -19 35 -23 -8
-17 -19 3 -33 11 -33 19 0 18 4 18 41 -2z m-408 -56 c14 -35 33 -80 41 -100
l16 -38 -80 0 -80 0 0 100 0 100 39 0 c38 0 39 -1 64 -62z m-185 -51 l3 -95
-58 -7 c-115 -14 -105 -20 -125 70 -10 44 -16 85 -14 91 2 6 37 16 77 23 41 7
79 15 84 16 25 8 30 -8 33 -98z m-273 21 c24 -106 34 -152 32 -154 -2 -2 -156
-44 -161 -44 -5 0 -53 120 -58 144 -2 16 11 24 77 46 100 35 104 35 110 8z
m-601 -83 c52 -1 56 -18 9 -46 -21 -12 -48 -29 -59 -36 -20 -13 -24 -9 -73 67
-28 44 -51 83 -51 85 0 3 30 -12 67 -32 43 -24 81 -37 107 -38z m360 -57 c14
-40 26 -76 26 -79 0 -9 -131 -61 -138 -55 -3 3 -22 34 -43 68 -33 56 -36 64
-21 73 20 12 134 63 143 64 4 1 18 -32 33 -71z m-225 -103 c17 -30 31 -58 31
-63 0 -4 -24 -20 -54 -34 l-54 -27 -24 37 c-14 20 -32 49 -41 63 l-17 26 57
31 c32 17 60 29 64 26 4 -2 21 -29 38 -59z m960 49 c30 -6 31 -9 31 -56 l0
-49 -32 17 c-20 11 -46 15 -74 11 -40 -4 -42 -3 -48 26 -11 55 -9 57 43 57 27
0 63 -3 80 -6z m-201 -77 c15 -98 7 -147 -23 -147 -12 0 -35 -3 -51 -6 l-29
-5 -28 101 c-16 56 -26 104 -23 108 8 7 73 19 112 21 l32 1 10 -73z m-211 -61
c13 -48 22 -94 20 -100 -5 -12 -125 -41 -134 -33 -6 7 -74 190 -71 192 13 9
118 33 137 32 22 -2 27 -12 48 -91z m-229 -54 c18 -48 32 -92 32 -98 0 -5 -22
-17 -50 -26 l-50 -16 -31 56 c-18 32 -40 71 -51 89 l-18 31 62 25 c35 14 65
26 68 26 3 0 20 -39 38 -87z m-191 -82 c24 -41 42 -79 40 -84 -2 -4 -24 -16
-50 -26 l-47 -18 -45 74 c-25 41 -45 79 -45 84 0 13 71 50 90 47 8 -1 34 -36
57 -77z m831 -226 c47 -19 88 -58 113 -106 50 -98 -13 -177 -118 -149 -71 19
-153 110 -153 170 0 36 24 74 55 87 40 17 58 17 103 -2z m978 -79 c10 -27 13
-49 8 -54 -5 -5 -105 -47 -222 -94 l-213 -86 -20 45 c-10 25 -19 49 -19 52 0
7 415 178 437 181 6 0 19 -19 29 -44z m-1206 25 c0 -5 -15 -11 -32 -14 -63 -9
-271 -27 -275 -23 -4 5 90 25 172 36 85 12 135 13 135 1z m-402 -40 c43 -31
82 -93 82 -130 0 -29 -53 -80 -82 -80 -35 1 -100 34 -129 66 -51 56 -56 128
-12 162 31 23 96 15 141 -18z m-484 -541 c31 -14 31 -18 10 -63 -15 -31 -20
-33 -41 -25 -37 14 -100 11 -133 -6 -86 -45 -76 -185 15 -215 36 -12 91 -10
127 5 13 5 22 -2 35 -29 15 -32 15 -38 2 -51 -23 -23 -113 -36 -166 -25 -107
24 -191 129 -181 225 10 86 69 159 154 191 43 16 135 12 178 -7z m351 2 c84
-38 127 -107 127 -202 0 -70 -22 -119 -74 -164 -99 -84 -263 -54 -316 57 -59
121 -21 247 91 303 60 30 116 32 172 6z m2153 -5 l31 -16 -21 -39 c-19 -35
-23 -38 -45 -30 -67 25 -151 1 -178 -51 -26 -50 -19 -95 19 -138 32 -34 39
-37 88 -37 29 0 63 4 75 8 19 7 25 2 42 -31 19 -38 19 -38 0 -50 -35 -22 -117
-33 -165 -22 -224 50 -241 336 -25 417 45 17 136 11 179 -11z m-3118 -26 l0
-40 -70 0 -70 0 0 -45 0 -45 70 0 70 0 0 -40 0 -40 -70 0 -70 0 0 -40 0 -40
70 0 70 0 0 -45 0 -46 -117 3 -118 3 -3 208 -2 207 120 0 120 0 0 -40z m1309
-75 c24 -64 46 -113 49 -110 3 3 24 54 47 113 l41 107 51 3 51 3 6 -43 c3 -24
10 -99 16 -168 5 -69 13 -144 16 -167 l5 -43 -49 0 -50 0 -7 98 c-4 53 -9 106
-12 117 l-6 20 -8 -20 c-5 -11 -23 -62 -40 -112 -31 -91 -32 -93 -63 -93 -31
0 -32 1 -71 116 -43 126 -51 127 -54 4 -1 -30 -4 -72 -7 -92 -6 -37 -8 -38
-50 -38 l-44 0 0 43 c0 23 7 110 15 192 8 83 15 158 15 168 0 14 9 17 53 17
l52 0 44 -115z m484 12 c21 -57 42 -109 47 -116 5 -9 23 27 52 100 l44 114 52
3 c29 2 52 1 52 -2 0 -16 31 -337 36 -373 l5 -43 -49 0 -50 0 -7 88 c-8 113
-15 150 -25 131 -4 -8 -22 -58 -40 -111 -32 -97 -33 -98 -65 -98 -31 0 -32 1
-71 115 -41 123 -51 126 -53 19 -1 -28 -4 -72 -7 -98 l-7 -46 -43 0 c-23 0
-45 3 -47 8 -2 4 4 90 14 192 10 102 18 193 18 203 1 14 10 17 54 17 l52 0 38
-103z m575 61 l3 -38 -76 0 -76 0 3 -42 3 -43 68 -3 67 -3 0 -39 0 -40 -70 0
-70 0 0 -40 0 -39 73 -3 72 -3 0 -40 0 -40 -114 -3 c-85 -2 -117 1 -123 10 -9
15 -11 352 -2 386 6 22 9 23 123 20 l116 -3 3 -37z m290 22 c71 -43 77 -138
15 -198 -39 -37 -43 -26 38 -122 68 -82 68 -80 2 -80 l-59 0 -59 78 -60 77 -5
-75 -5 -75 -47 -3 -48 -3 0 210 0 211 98 0 c80 0 103 -4 130 -20z m772 -20 l0
-40 -70 0 -70 0 0 -45 0 -45 70 0 70 0 0 -40 0 -40 -70 0 -70 0 0 -40 0 -40
70 0 70 0 0 -45 0 -46 -117 3 -118 3 -3 208 -2 207 120 0 120 0 0 -40z m-3200
-230 l0 -40 -80 0 -80 0 0 40 0 40 80 0 80 0 0 -40z m170 -325 c0 -11 -11 -15
-40 -15 -29 0 -40 -4 -40 -15 0 -10 11 -15 35 -15 24 0 35 -5 35 -15 0 -10
-11 -15 -35 -15 -24 0 -35 -5 -35 -15 0 -11 11 -15 40 -15 29 0 40 -4 40 -15
0 -12 -13 -15 -60 -15 l-60 0 0 75 0 75 60 0 c47 0 60 -3 60 -15z m214 -57
c28 -61 31 -74 18 -77 -9 -2 -21 4 -27 13 -15 20 -74 21 -81 1 -4 -8 -15 -15
-26 -15 -11 0 -18 4 -16 8 71 173 82 179 132 70z m221 52 c0 -11 -10 -14 -39
-12 -47 4 -46 -18 1 -30 17 -4 36 -15 43 -23 18 -22 -2 -65 -32 -67 -60 -4
-97 9 -84 30 4 6 17 7 34 3 56 -16 72 11 18 29 -49 16 -62 34 -47 66 10 22 16
25 59 22 34 -2 47 -7 47 -18z m139 -12 c18 -30 20 -30 33 -12 8 10 18 25 22
33 4 7 15 11 24 10 14 -3 12 -12 -13 -51 -17 -27 -30 -59 -30 -73 0 -18 -5
-25 -20 -25 -16 0 -20 7 -20 33 0 18 -11 48 -25 69 -30 44 -30 48 -7 48 10 0
26 -14 36 -32z m411 17 c0 -5 -17 -11 -38 -13 -46 -4 -45 -21 2 -37 87 -29 42
-110 -48 -86 -44 12 -33 36 17 33 23 -2 42 1 42 6 0 6 -19 16 -42 24 -46 14
-61 45 -37 74 14 17 104 16 104 -1z m235 -5 c27 -27 27 -90 0 -115 -20 -18
-87 -24 -110 -10 -6 4 -18 21 -25 38 -14 35 -5 73 22 95 26 19 90 15 113 -8z
m150 -40 l0 -60 40 0 c29 0 40 -4 40 -15 0 -12 -13 -15 -55 -15 l-55 0 0 75
c0 60 3 75 15 75 12 0 15 -13 15 -60z m202 3 c3 -52 5 -58 27 -61 31 -5 41 12
41 71 0 35 4 47 15 47 12 0 15 -13 15 -58 0 -74 -15 -96 -65 -96 -53 0 -75 30
-75 100 0 47 3 54 20 54 16 0 19 -8 22 -57z m318 42 c0 -9 -9 -15 -25 -15 -24
0 -25 -3 -25 -60 0 -53 -2 -60 -20 -60 -18 0 -20 7 -20 60 0 53 -2 60 -20 60
-11 0 -20 7 -20 15 0 12 14 15 65 15 51 0 65 -3 65 -15z m120 -60 c0 -68 -2
-75 -20 -75 -18 0 -20 7 -20 68 0 71 4 82 27 82 10 0 13 -19 13 -75z m237 53
c41 -38 27 -108 -25 -126 -63 -22 -116 13 -116 75 0 67 89 100 141 51z m185
-20 l37 -43 1 43 c0 35 3 42 20 42 18 0 20 -7 20 -75 0 -65 -2 -75 -17 -75
-10 0 -35 19 -55 42 l-37 43 -1 -42 c0 -36 -3 -43 -20 -43 -18 0 -20 7 -20 75
0 91 14 98 72 33z"/>
<path d="M2202 3598 c-12 -6 -25 -23 -29 -36 -8 -32 16 -77 41 -77 10 0 23 -8
30 -18 30 -40 121 -4 114 46 -2 17 -9 21 -26 19 -34 -5 -72 24 -72 53 0 28
-19 32 -58 13z"/>
<path d="M1799 3369 c-34 -34 -10 -100 34 -92 14 3 29 -2 36 -11 17 -20 55
-21 70 -2 20 24 10 70 -17 74 -12 2 -30 14 -38 28 -20 30 -57 31 -85 3z"/>
<path d="M2899 2299 c-17 -33 17 -74 62 -74 28 0 35 4 37 23 5 30 -33 72 -64
72 -14 0 -28 -9 -35 -21z"/>
<path d="M2247 2253 c-15 -15 -6 -63 14 -73 28 -16 63 -9 67 13 7 35 -58 83
-81 60z"/>
<path d="M2073 1675 c-39 -17 -63 -61 -63 -115 0 -75 39 -119 106 -120 115 0
147 190 39 236 -41 17 -42 17 -82 -1z"/>
<path d="M3759 1683 c0 -5 -1 -27 -2 -50 -2 -42 -1 -43 28 -43 38 0 55 16 55
50 0 14 -5 31 -12 38 -13 13 -68 17 -69 5z"/>
<path d="M1782 1126 c-10 -23 -9 -26 8 -26 21 0 23 4 11 33 -6 17 -8 16 -19
-7z"/>
<path d="M2749 1139 c-18 -34 3 -69 41 -69 22 0 33 6 41 24 16 35 -3 66 -41
66 -20 0 -33 -7 -41 -21z"/>
<path d="M3778 1134 c-17 -36 0 -59 42 -59 24 0 35 6 41 21 19 53 -60 90 -83
38z"/>
</g>
</svg>
